<svg width="108" height="114" viewBox="0 0 108 114" fill="none"
    xmlns="http://www.w3.org/2000/svg">
    <g clip-path="url(#clip0_0_1)">
        <path d="M75.8491 46.1321H64.151L61.6981 60.3774H43.7736L54.151 1.41509H82.4529C93.1447 1.41509 98.4906 6.38364 98.4906 16.3208C98.4906 21.0377 97.8302 25.3145 96.5095 29.1509C95.1887 32.9245 93.7108 35.9434 92.0755 38.2075C90.5032 40.4089 88.3019 42.2957 85.4717 43.8679C82.7044 45.3774 79.4968 46.1321 75.8491 46.1321ZM70.9434 31.0377C73.0817 31.0377 74.6855 30.8175 75.7547 30.3774C76.8868 29.8741 77.61 28.7736 77.9245 27.0755C78.7421 22.4213 79.151 19.8741 79.151 19.434C79.151 18.239 78.6793 17.4528 77.7359 17.0755C76.7925 16.6981 75.3774 16.5094 73.4906 16.5094H69.3396L66.7925 31.0377H70.9434ZM40.9434 60.0943L0.94342 55.8491H41.6981L40.9434 60.0943ZM44.151 41.8868L4.15097 37.6415H44.9057L44.151 41.8868ZM47.2642 23.7736L7.35851 19.5283H48.0189L47.2642 23.7736ZM48.8679 14.717L8.96229 10.4717H49.6227L48.8679 14.717ZM42.5472 50.9434L2.54719 46.6981H43.3019L42.5472 50.9434ZM50.4717 5.66038L10.5661 1.41509H51.2264L50.4717 5.66038ZM45.6604 32.8302L5.75474 28.5849H46.4151L45.6604 32.8302Z" fill="#C872D6"/>
    </g>
    <path d="M96.3265 90.102H79.7959L75.7143 113.776H56.3265L67.551 50H107.347L101.939 66.3265H83.9796L82.551 74.898H99.0816L96.3265 90.102ZM53.2653 113.469L10 108.878H54.0816L53.2653 113.469ZM56.7347 93.7755L13.4694 89.1837H57.551L56.7347 93.7755ZM58.4694 83.9796L15.2041 79.3878H59.2857L58.4694 83.9796ZM60.2041 74.1837L16.9388 69.5918H61.0204L60.2041 74.1837ZM55 103.571L11.7347 98.9796H55.8163L55 103.571Z" fill="#7EE5C0"/>
    <defs>
        <clipPath id="clip0_0_1">
            <rect width="100" height="60.3774" fill="white"/>
        </clipPath>
    </defs>
</svg>
